<?xml version="1.0" ?><svg style="enable-background:new 0 0 48 48;" version="1.1" viewBox="0 0 48 48" xml:space="preserve" xmlns="http://www.w3.org/2000/svg" xmlns:xlink="http://www.w3.org/1999/xlink"><style type="text/css">
	.st0{display:none;}
	.st1{fill:none;stroke:#303030;stroke-width:0.7;stroke-linecap:round;stroke-linejoin:round;stroke-miterlimit:10;}
	.st2{fill:#303030;}
</style><g class="st0" id="Padding__x26__Artboard"/><g id="Icons"><path class="st1" d="M25.03771,20.73605v-3.72068c0-0.37989,0.41341-0.60336,0.72626-0.40224l9.38551,5.92181   c0.30167,0.18995,0.30167,0.61453,0,0.80447l-5.18438,3.27375l-1.86593,1.18436l-2.33521,1.47487   c-0.31285,0.20112-0.72626-0.03352-0.72626-0.40224v-3.24024v-0.49162"/><path class="st1" d="M29.96511,26.61317l-1.86593,1.18436l-2.33521,1.47487c-0.31285,0.20112-0.72626-0.03352-0.72626-0.40224   v-3.24024l0-0.49162c-2.5759,0.10566-5.71802-0.35782-7.84392,0.6112c-1.96628,0.89627-3.54569,2.56389-4.26663,4.60153   c-0.12819,0.3623-0.22955,0.73407-0.3029,1.11132v-2.97208c0-1.12794,0.24487-2.25127,0.7168-3.27587   c0.4588-0.9961,1.12709-1.89266,1.94799-2.61962c0.82495-0.73054,1.80136-1.28686,2.85232-1.61889   c1.5111-0.4774,3.15323-0.41175,4.71545-0.30955c0.72522,0.04744,1.45389,0.06971,2.18089,0.06971"/><path class="st1" d="M19.58749,22.12313c0.56024-0.10583,1.13245-0.15318,1.70671-0.16586"/><path class="st1" d="M15.99155,23.71498c0.5257-0.66081,1.5829-1.17309,2.19002-1.18366"/></g></svg>