<svg xmlns="http://www.w3.org/2000/svg" width="24.959" height="23.878" viewBox="0 0 24.959 23.878">
  <g id="Icons" transform="translate(-11.521 -12.072)">
    <g id="Group_2" data-name="Group 2">
      <path id="Path_2" data-name="Path 2" d="M17.952,33.905h.9a1.069,1.069,0,0,1,.6.179c.28.188.558.381.845.557a2.407,2.407,0,0,0,.54.295l6.926.008H32.6a1.688,1.688,0,0,0,1.695-1.7c-.017-.847-.156-1.608-1-1.608H33.4a1.616,1.616,0,0,0,1.609-1.661c-.01-.969.138-1.762-.828-1.762H34.5c.92,0,1.41-.8,1.41-1.734s.12-1.659-.8-1.659h.322c.92,0,1.047-.81,1.047-1.73a1.418,1.418,0,0,0-1.418-1.607l-8.7.014a21.863,21.863,0,0,0,1.155-4.833,11.361,11.361,0,0,0-.337-1.562c-.171-.684-.355-1.365-.54-2.045-.118-.435-.806-.74-1.188-.879a1.732,1.732,0,0,0-1.685.267c-.259.2-.661.538-.66.889,0,1.217,0,2.435,0,3.652v.032a.529.529,0,0,1-.1.362q-1.022,1.705-2.038,3.414-.446.749-.891,1.5a3.324,3.324,0,0,1-.975,1.238c-.407.256-.781.492-1.19.747" fill="#1877f2"/>
      <path id="Path_3" data-name="Path 3" d="M16.542,35.949H12.855a1.335,1.335,0,0,1-1.335-1.335V24.34a1.335,1.335,0,0,1,1.335-1.335h3.687a1.335,1.335,0,0,1,1.335,1.335V34.615A1.335,1.335,0,0,1,16.542,35.949Z" fill="#1877f2"/>
      <line id="Line_3" data-name="Line 3" y1="5.044" transform="translate(13.555 24.761)" fill="none"/>
      <line id="Line_4" data-name="Line 4" y2="0.803" transform="translate(13.555 30.953)" fill="none"/>
    </g>
  </g>
</svg>
